<svg aria-hidden="true" style="position: absolute; width: 0; height: 0; overflow: hidden;" version="1.1" xmlns="http://www.w3.org/2000/svg" xmlns:xlink="http://www.w3.org/1999/xlink">
<defs>
<symbol id="icon-arrow-up" viewBox="0 0 32 32">
<path fill="#142251" style="fill: var(--color1, #142251)" d="M16 5.333c0.354 0 0.693 0.14 0.943 0.391l8 8c0.521 0.521 0.521 1.365 0 1.886s-1.365 0.521-1.886 0l-5.724-5.724v15.448c0 0.736-0.597 1.333-1.333 1.333s-1.333-0.597-1.333-1.333v-15.448l-5.724 5.724c-0.521 0.521-1.365 0.521-1.886 0s-0.521-1.365 0-1.886l8-8c0.25-0.25 0.589-0.391 0.943-0.391z"></path>
</symbol>
<symbol id="icon-arrow-bottom" viewBox="0 0 28 32">
<path fill="#213887" style="fill: var(--color2, #213887)" d="M14 0c1.105 0 2 0.895 2 2v23.172l8.586-8.586c0.781-0.781 2.047-0.781 2.828 0s0.781 2.047 0 2.828l-12 12c-0.781 0.781-2.047 0.781-2.828 0l-12-12c-0.781-0.781-0.781-2.047 0-2.828s2.047-0.781 2.828 0l8.586 8.586v-23.172c0-1.105 0.895-2 2-2z"></path>
</symbol>
<symbol id="icon-telegram" viewBox="0 0 32 32">
<path fill="#213887" style="fill: var(--color2, #213887)" d="M16 32c8.837 0 16-7.163 16-16s-7.163-16-16-16c-8.837 0-16 7.163-16 16s7.163 16 16 16z"></path>
<path fill="#fff" style="fill: var(--color3, #fff)" d="M7.242 15.831c4.664-2.032 7.775-3.372 9.331-4.019 4.443-1.848 5.367-2.169 5.968-2.18 0.132-0.002 0.428 0.030 0.62 0.186 0.162 0.131 0.206 0.309 0.228 0.433s0.048 0.408 0.027 0.63c-0.241 2.53-1.283 8.67-1.813 11.503-0.224 1.199-0.666 1.601-1.093 1.64-0.929 0.085-1.635-0.614-2.535-1.204-1.408-0.923-2.204-1.498-3.571-2.398-1.58-1.041-0.556-1.613 0.345-2.548 0.236-0.245 4.329-3.968 4.409-4.306 0.010-0.042 0.019-0.2-0.074-0.283s-0.232-0.055-0.331-0.032c-0.141 0.032-2.391 1.519-6.749 4.461-0.639 0.439-1.217 0.652-1.735 0.641-0.571-0.012-1.67-0.323-2.487-0.589-1.002-0.326-1.798-0.498-1.729-1.051 0.036-0.288 0.433-0.583 1.19-0.884z"></path>
</symbol>
<symbol id="icon-user" viewBox="0 0 32 32">
<path fill="#142251" style="fill: var(--color1, #142251)" d="M16 5.333c-2.946 0-5.333 2.388-5.333 5.333s2.388 5.333 5.333 5.333c2.946 0 5.333-2.388 5.333-5.333s-2.388-5.333-5.333-5.333zM8 10.667c0-4.418 3.582-8 8-8s8 3.582 8 8c0 4.418-3.582 8-8 8s-8-3.582-8-8zM10.667 24c-2.209 0-4 1.791-4 4 0 0.736-0.597 1.333-1.333 1.333s-1.333-0.597-1.333-1.333c0-3.682 2.985-6.667 6.667-6.667h10.667c3.682 0 6.667 2.985 6.667 6.667 0 0.736-0.597 1.333-1.333 1.333s-1.333-0.597-1.333-1.333c0-2.209-1.791-4-4-4h-10.667z"></path>
</symbol>
<symbol id="icon-favorite" viewBox="0 0 32 32">
<path fill="#142251" style="fill: var(--color1, #142251)" d="M16 3.333c0.505 0 0.967 0.285 1.193 0.737l3.439 6.877 7.561 1.1c0.502 0.073 0.919 0.425 1.076 0.907s0.026 1.012-0.337 1.367l-5.503 5.365 1.238 7.565c0.082 0.5-0.127 1.003-0.538 1.299s-0.955 0.332-1.402 0.095l-6.725-3.568-6.725 3.568c-0.447 0.237-0.991 0.201-1.402-0.095s-0.62-0.799-0.538-1.299l1.238-7.565-5.503-5.365c-0.363-0.354-0.494-0.884-0.337-1.367s0.574-0.834 1.076-0.907l7.561-1.1 3.439-6.877c0.226-0.452 0.688-0.737 1.193-0.737zM16 7.648l-2.557 5.115c-0.195 0.39-0.569 0.66-1.001 0.723l-5.577 0.811 4.066 3.965c0.312 0.304 0.455 0.741 0.385 1.17l-0.916 5.597 4.975-2.64c0.391-0.207 0.859-0.207 1.25 0l4.975 2.64-0.916-5.597c-0.070-0.429 0.073-0.866 0.385-1.17l4.066-3.965-5.577-0.811c-0.432-0.063-0.806-0.333-1.001-0.723l-2.557-5.115z"></path>
</symbol>
<symbol id="icon-case" viewBox="0 0 36 32">
<path fill="#142251" style="fill: var(--color1, #142251)" d="M12.444 0h10.667c2.945 0 5.333 2.388 5.333 5.333v1.778h3.556c1.964 0 3.556 1.592 3.556 3.556v17.778c0 1.964-1.592 3.556-3.556 3.556h-28.444c-1.964 0-3.556-1.592-3.556-3.556v-17.778c0-1.964 1.592-3.556 3.556-3.556l3.556-0v-1.778c0-2.946 2.388-5.333 5.333-5.333zM24.889 7.111v-1.778c0-0.982-0.796-1.778-1.778-1.778h-10.667c-0.982 0-1.778 0.796-1.778 1.778v1.778h14.222zM3.556 10.667v3.556h28.444v-3.556h-28.444zM32 17.778h-9.192c-0.732 2.071-2.708 3.556-5.030 3.556s-4.298-1.484-5.030-3.556h-9.192v10.667h28.444v-10.667z"></path>
</symbol>
<symbol id="icon-megaphone" viewBox="0 0 32 32">
<path fill="#142251" style="fill: var(--color1, #142251)" d="M23.336 2.847c0.411 0.239 0.664 0.678 0.664 1.153v5.333c1.58 0 3 0.688 3.975 1.777 0.844 0.943 1.358 2.191 1.358 3.556s-0.515 2.613-1.358 3.556c-0.975 1.089-2.395 1.777-3.975 1.777v5.333c0 0.475-0.253 0.915-0.664 1.153s-0.918 0.24-1.331 0.004l-8.672-4.955v6.464c0 0.736-0.597 1.333-1.333 1.333h-5.333c-0.736 0-1.333-0.597-1.333-1.333v-6.667c-1.473 0-2.667-1.194-2.667-2.667v-8c0-1.473 1.194-2.667 2.667-2.667h7.646l9.026-5.158c0.413-0.236 0.92-0.234 1.331 0.004zM13.333 18.667c0.232 0 0.46 0.061 0.662 0.176l7.338 4.193v-16.738l-7.338 4.193c-0.201 0.115-0.429 0.176-0.662 0.176h-8v8h8zM8 21.333v5.333h2.667v-5.333h-2.667zM24 17.333c0.79 0 1.498-0.342 1.988-0.889 0.423-0.473 0.679-1.094 0.679-1.777s-0.256-1.305-0.679-1.777c-0.49-0.548-1.198-0.889-1.988-0.889v5.333z"></path>
</symbol>
<symbol id="icon-check" viewBox="0 0 40 32">
<path fill="none" stroke="#142251" style="stroke: var(--color1, #142251)" stroke-linejoin="miter" stroke-linecap="round" stroke-miterlimit="4" stroke-width="5.1429" d="M3.429 16.605l10.799 10.824 22.344-24"></path>
</symbol>
<symbol id="icon-clipboard-check" viewBox="0 0 32 32">
<path fill="#142251" style="fill: var(--color1, #142251)" d="M10.667 4c0-0.736 0.597-1.333 1.333-1.333h8c0.736 0 1.333 0.597 1.333 1.333h2.667c1.473 0 2.667 1.194 2.667 2.667v20c0 1.473-1.194 2.667-2.667 2.667h-16c-1.473 0-2.667-1.194-2.667-2.667v-20c0-1.473 1.194-2.667 2.667-2.667h2.667zM10.667 6.667h-2.667v20h16v-20h-2.667v1.333c0 0.736-0.597 1.333-1.333 1.333h-8c-0.736 0-1.333-0.597-1.333-1.333v-1.333zM18.667 5.333h-5.333v1.333h5.333v-1.333zM20.943 14.391c0.521 0.521 0.521 1.365 0 1.886l-5.333 5.333c-0.521 0.521-1.365 0.521-1.886 0l-2.667-2.667c-0.521-0.521-0.521-1.365 0-1.886s1.365-0.521 1.886 0l1.724 1.724 4.391-4.391c0.521-0.521 1.365-0.521 1.886 0z"></path>
</symbol>
<symbol id="icon-arrow-right" viewBox="0 0 32 32">
<path fill="#142251" style="fill: var(--color1, #142251)" d="M16.39 7.057c0.521-0.521 1.365-0.521 1.886 0l8 8c0.25 0.25 0.39 0.589 0.39 0.943s-0.14 0.693-0.39 0.943l-8 8c-0.521 0.521-1.365 0.521-1.886 0s-0.521-1.365 0-1.886l5.724-5.724h-15.448c-0.736 0-1.333-0.597-1.333-1.333s0.597-1.333 1.333-1.333h15.448l-5.724-5.724c-0.521-0.521-0.521-1.365 0-1.886z"></path>
</symbol>
<symbol id="icon-arrow-left" viewBox="0 0 32 32">
<path fill="#142251" style="fill: var(--color1, #142251)" opacity="0.22" d="M15.61 7.057c0.521 0.521 0.521 1.365 0 1.886l-5.724 5.724h15.448c0.736 0 1.333 0.597 1.333 1.333s-0.597 1.333-1.333 1.333h-15.448l5.724 5.724c0.521 0.521 0.521 1.365 0 1.886s-1.365 0.521-1.886 0l-8-8c-0.25-0.25-0.391-0.589-0.391-0.943s0.14-0.693 0.391-0.943l8-8c0.521-0.521 1.365-0.521 1.886 0z"></path>
</symbol>
<symbol id="icon-whatsapp" viewBox="0 0 30 32">
<path fill="#213887" style="fill: var(--color2, #213887)" d="M14.825 30.585h0.006c8.109-0.003 14.704-6.6 14.707-14.707 0.002-3.93-1.527-7.625-4.304-10.405s-6.47-4.312-10.404-4.313c-8.107 0-14.704 6.597-14.708 14.706-0.001 2.592 0.676 5.122 1.963 7.353l-2.087 7.621 7.797-2.045c2.148 1.172 4.567 1.789 7.028 1.79zM21.738 19.044c0.256 0.124 0.429 0.207 0.503 0.331 0.092 0.153 0.092 0.889-0.214 1.748s-1.775 1.642-2.481 1.747c-0.633 0.095-1.434 0.134-2.315-0.146-0.534-0.169-1.218-0.395-2.095-0.774-3.445-1.488-5.773-4.827-6.213-5.458-0.031-0.044-0.052-0.075-0.064-0.091l-0.003-0.004c-0.194-0.259-1.498-1.998-1.498-3.798 0-1.693 0.832-2.58 1.214-2.988 0.026-0.028 0.050-0.054 0.072-0.077 0.337-0.368 0.735-0.46 0.98-0.46s0.49 0.002 0.704 0.013c0.026 0.001 0.054 0.001 0.082 0.001 0.214-0.001 0.481-0.003 0.745 0.63 0.101 0.243 0.25 0.604 0.406 0.985 0.316 0.77 0.666 1.621 0.727 1.744 0.092 0.184 0.153 0.398 0.031 0.644-0.018 0.037-0.035 0.072-0.052 0.105-0.092 0.188-0.16 0.326-0.316 0.508-0.061 0.072-0.125 0.149-0.188 0.226-0.126 0.154-0.253 0.308-0.363 0.418-0.184 0.183-0.376 0.382-0.161 0.75s0.952 1.571 2.044 2.546c1.174 1.047 2.195 1.49 2.712 1.715 0.101 0.044 0.183 0.079 0.243 0.109 0.367 0.184 0.582 0.153 0.796-0.092s0.919-1.073 1.164-1.441c0.245-0.368 0.49-0.307 0.827-0.184s2.144 1.012 2.511 1.196c0.072 0.036 0.139 0.068 0.201 0.098z"></path>
</symbol>
</defs>
</svg>
